<?xml version="1.0" encoding="UTF-8"?><svg xmlns="http://www.w3.org/2000/svg" xmlns:xlink="http://www.w3.org/1999/xlink" height="500.0" preserveAspectRatio="xMidYMid meet" version="1.0" viewBox="0.0 0.0 500.0 500.0" width="500.0" zoomAndPan="magnify"><g fill="#070605" id="change1_1"><path d="M 250 332.183594 C 204.683594 332.183594 167.8125 295.320312 167.8125 250.007812 C 167.8125 204.6875 204.683594 167.816406 250 167.816406 C 295.316406 167.816406 332.1875 204.6875 332.1875 250.007812 C 332.1875 295.320312 295.316406 332.183594 250 332.183594 Z M 366.054688 170.074219 L 308.050781 170.074219 C 310.816406 164.394531 310.421875 157.191406 305.375 151.738281 C 302.265625 148.382812 297.902344 146.476562 293.328125 146.476562 L 206.671875 146.476562 C 202.210938 146.476562 197.941406 148.289062 194.847656 151.503906 C 189.59375 156.960938 189.144531 164.300781 191.953125 170.074219 L 133.945312 170.074219 C 121.292969 170.074219 110.941406 180.425781 110.941406 193.078125 L 110.941406 330.523438 C 110.941406 343.175781 121.292969 353.527344 133.945312 353.527344 L 366.054688 353.527344 C 378.707031 353.527344 389.058594 343.175781 389.058594 330.523438 L 389.058594 193.078125 C 389.058594 180.425781 378.707031 170.074219 366.054688 170.074219" fill="inherit"/><path d="M 258.898438 224.011719 C 242.117188 224.011719 228.460938 237.667969 228.460938 254.457031 C 228.460938 259.371094 224.480469 263.355469 219.5625 263.355469 C 214.648438 263.355469 210.664062 259.371094 210.664062 254.457031 C 210.664062 227.855469 232.300781 206.214844 258.898438 206.214844 C 263.8125 206.214844 267.796875 210.199219 267.796875 215.113281 C 267.796875 220.023438 263.8125 224.011719 258.898438 224.011719 Z M 250 194.511719 C 219.402344 194.511719 194.503906 219.40625 194.503906 250.007812 C 194.503906 280.601562 219.402344 305.492188 250 305.492188 C 280.597656 305.492188 305.496094 280.601562 305.496094 250.007812 C 305.496094 219.40625 280.597656 194.511719 250 194.511719" fill="inherit"/><path d="M 415.75 330.523438 C 415.75 357.925781 393.457031 380.21875 366.054688 380.21875 L 133.945312 380.21875 C 106.542969 380.21875 84.25 357.925781 84.25 330.523438 L 84.25 193.078125 C 84.25 165.675781 106.542969 143.382812 133.945312 143.382812 L 168.183594 143.382812 C 170.09375 139.652344 172.578125 136.148438 175.621094 132.988281 C 183.703125 124.597656 195.019531 119.78125 206.671875 119.78125 L 293.328125 119.78125 C 305.300781 119.78125 316.828125 124.820312 324.957031 133.601562 C 327.730469 136.597656 330.015625 139.890625 331.796875 143.382812 L 366.054688 143.382812 C 393.457031 143.382812 415.75 165.675781 415.75 193.078125 Z M 250 0 C 111.929688 0 0 111.929688 0 250 C 0 388.070312 111.929688 500 250 500 C 388.070312 500 500 388.070312 500 250 C 500 111.929688 388.070312 0 250 0" fill="inherit"/></g></svg>